<!DOCTYPE svg PUBLIC "-//W3C//DTD SVG 1.1//EN" "http://www.w3.org/Graphics/SVG/1.1/DTD/svg11.dtd">
<!-- Uploaded to: SVG Repo, www.svgrepo.com, Transformed by: SVG Repo Mixer Tools -->
<svg version="1.1" id="Layer_1" xmlns="http://www.w3.org/2000/svg" xmlns:xlink="http://www.w3.org/1999/xlink" viewBox="0 0 504 504" xml:space="preserve" width="800px" height="800px" fill="#000000">
<g id="SVGRepo_bgCarrier" stroke-width="0"/>
<g id="SVGRepo_tracerCarrier" stroke-linecap="round" stroke-linejoin="round"/>
<g id="SVGRepo_iconCarrier"> <circle style="fill:#F8E074;" cx="252" cy="252" r="252"/> <g> <rect x="143.8" y="179.8" style="fill:#84DBFF;" width="39.8" height="146.8"/> <rect x="232.1" y="179.8" style="fill:#84DBFF;" width="39.8" height="146.8"/> <rect x="320.4" y="179.8" style="fill:#84DBFF;" width="39.8" height="146.8"/> </g> <polygon style="fill:#D66159;" points="389.7,180.6 114.3,180.6 114.3,148.9 252,97.6 389.7,148.9 "/> <polygon style="fill:#ebebeb;" points="129,166 129,159.1 252,113.3 375,159.1 375,166 "/> <rect x="119.1" y="326.6" style="fill:#D66159;" width="265.8" height="20.2"/> <rect x="105.4" y="346.8" style="fill:#D66159;" width="293.2" height="20.2"/> <g> <path style="fill:#3CB4D2;" d="M313.8,180.6v10.6c0,3.2,2.6,5.9,5.9,5.9h41.2c3.2,0,5.9-2.6,5.9-5.9v-10.6H313.8z"/> <path style="fill:#3CB4D2;" d="M225.5,180.6v10.6c0,3.2,2.6,5.9,5.9,5.9h41.2c3.2,0,5.9-2.6,5.9-5.9v-10.6H225.5z"/> <path style="fill:#3CB4D2;" d="M137.2,180.6v10.6c0,3.2,2.6,5.9,5.9,5.9h41.2c3.2,0,5.9-2.6,5.9-5.9v-10.6H137.2z"/> <path style="fill:#3CB4D2;" d="M313.8,326.6V316c0-3.2,2.6-5.9,5.9-5.9h41.2c3.2,0,5.9,2.6,5.9,5.9v10.6H313.8z"/> <path style="fill:#3CB4D2;" d="M225.5,326.6V316c0-3.2,2.6-5.9,5.9-5.9h41.2c3.2,0,5.9,2.6,5.9,5.9v10.6H225.5z"/> <path style="fill:#3CB4D2;" d="M137.2,326.6V316c0-3.2,2.6-5.9,5.9-5.9h41.2c3.2,0,5.9,2.6,5.9,5.9v10.6H137.2z"/> </g> </g>
</svg>